<mxfile host="app.diagrams.net" modified="2021-02-19T09:38:18.086Z" agent="5.0 (Windows NT 10.0; Win64; x64) AppleWebKit/537.36 (KHTML, like Gecko) Chrome/84.0.4147.105 Safari/537.36" etag="J-rtesKoBTIsdrpUc0R1" version="14.2.9" type="github">
  <diagram id="sN1rt2vFc1GLKW9EGNoP" name="第 1 页">
    <mxGraphModel dx="1422" dy="713" grid="1" gridSize="10" guides="1" tooltips="1" connect="1" arrows="1" fold="1" page="1" pageScale="1" pageWidth="827" pageHeight="1169" math="0" shadow="0">
      <root>
        <mxCell id="0" />
        <mxCell id="1" parent="0" />
        <mxCell id="OB8H3D4eKz52UWN7a_ga-1" value="打榜" style="rounded=1;whiteSpace=wrap;html=1;" vertex="1" parent="1">
          <mxGeometry x="110" y="100" width="120" height="60" as="geometry" />
        </mxCell>
        <mxCell id="OB8H3D4eKz52UWN7a_ga-2" value="投票存储" style="shape=cylinder3;whiteSpace=wrap;html=1;boundedLbl=1;backgroundOutline=1;size=15;fillColor=#9AC7BF;fontSize=14;" vertex="1" parent="1">
          <mxGeometry x="140" y="401" width="60" height="80" as="geometry" />
        </mxCell>
        <mxCell id="OB8H3D4eKz52UWN7a_ga-3" value="中转系统" style="rounded=1;whiteSpace=wrap;html=1;fillColor=#dae8fc;strokeColor=#6c8ebf;gradientColor=#7ea6e0;fontSize=14;" vertex="1" parent="1">
          <mxGeometry x="520" y="100" width="120" height="60" as="geometry" />
        </mxCell>
        <mxCell id="OB8H3D4eKz52UWN7a_ga-4" value="榜单写" style="rounded=1;whiteSpace=wrap;html=1;" vertex="1" parent="1">
          <mxGeometry x="440" y="299" width="120" height="60" as="geometry" />
        </mxCell>
        <mxCell id="OB8H3D4eKz52UWN7a_ga-5" value="用户数据写" style="rounded=1;whiteSpace=wrap;html=1;strokeColor=#666666;fillColor=#CC99FF;fontSize=14;" vertex="1" parent="1">
          <mxGeometry x="603" y="298" width="120" height="60" as="geometry" />
        </mxCell>
        <mxCell id="OB8H3D4eKz52UWN7a_ga-6" value="榜单存储" style="shape=cylinder3;whiteSpace=wrap;html=1;boundedLbl=1;backgroundOutline=1;size=15;fillColor=#9AC7BF;fontSize=14;" vertex="1" parent="1">
          <mxGeometry x="470" y="439" width="60" height="80" as="geometry" />
        </mxCell>
        <mxCell id="OB8H3D4eKz52UWN7a_ga-7" value="用户数据&lt;br style=&quot;font-size: 14px;&quot;&gt;存储" style="shape=cylinder3;whiteSpace=wrap;html=1;boundedLbl=1;backgroundOutline=1;size=15;fillColor=#9AC7BF;fontSize=14;" vertex="1" parent="1">
          <mxGeometry x="638" y="438" width="60" height="80" as="geometry" />
        </mxCell>
        <mxCell id="OB8H3D4eKz52UWN7a_ga-8" value="流水记录" style="shape=tape;whiteSpace=wrap;html=1;gradientColor=#97d077;fillColor=#d5e8d4;strokeColor=#82b366;fontSize=14;" vertex="1" parent="1">
          <mxGeometry x="260" y="220" width="140" height="100" as="geometry" />
        </mxCell>
        <mxCell id="OB8H3D4eKz52UWN7a_ga-9" value="" style="endArrow=classic;html=1;entryX=0.5;entryY=0;entryDx=0;entryDy=0;" edge="1" parent="1" target="OB8H3D4eKz52UWN7a_ga-1">
          <mxGeometry width="50" height="50" relative="1" as="geometry">
            <mxPoint x="170" y="30" as="sourcePoint" />
            <mxPoint x="180" y="50" as="targetPoint" />
          </mxGeometry>
        </mxCell>
        <mxCell id="OB8H3D4eKz52UWN7a_ga-10" value="" style="endArrow=classic;html=1;exitX=1;exitY=0.5;exitDx=0;exitDy=0;entryX=0;entryY=0.5;entryDx=0;entryDy=0;" edge="1" parent="1" source="OB8H3D4eKz52UWN7a_ga-1" target="OB8H3D4eKz52UWN7a_ga-3">
          <mxGeometry width="50" height="50" relative="1" as="geometry">
            <mxPoint x="250" y="160" as="sourcePoint" />
            <mxPoint x="300" y="110" as="targetPoint" />
          </mxGeometry>
        </mxCell>
        <mxCell id="OB8H3D4eKz52UWN7a_ga-11" value="" style="strokeWidth=1;html=1;shape=mxgraph.flowchart.annotation_2;align=left;labelPosition=right;pointerEvents=1;rotation=90;" vertex="1" parent="1">
          <mxGeometry x="535.16" y="124.22" width="94.06" height="165.62" as="geometry" />
        </mxCell>
        <mxCell id="OB8H3D4eKz52UWN7a_ga-12" value="" style="endArrow=classic;html=1;" edge="1" parent="1">
          <mxGeometry width="50" height="50" relative="1" as="geometry">
            <mxPoint x="665" y="230" as="sourcePoint" />
            <mxPoint x="665" y="297" as="targetPoint" />
          </mxGeometry>
        </mxCell>
        <mxCell id="OB8H3D4eKz52UWN7a_ga-14" value="" style="endArrow=classic;html=1;" edge="1" parent="1">
          <mxGeometry width="50" height="50" relative="1" as="geometry">
            <mxPoint x="499" y="233" as="sourcePoint" />
            <mxPoint x="499" y="298" as="targetPoint" />
          </mxGeometry>
        </mxCell>
        <mxCell id="OB8H3D4eKz52UWN7a_ga-16" value="" style="endArrow=classic;html=1;entryX=0.5;entryY=0;entryDx=0;entryDy=0;entryPerimeter=0;exitX=0.5;exitY=1;exitDx=0;exitDy=0;startArrow=classic;startFill=1;" edge="1" parent="1" source="OB8H3D4eKz52UWN7a_ga-1" target="OB8H3D4eKz52UWN7a_ga-2">
          <mxGeometry width="50" height="50" relative="1" as="geometry">
            <mxPoint x="70" y="270" as="sourcePoint" />
            <mxPoint x="120" y="220" as="targetPoint" />
          </mxGeometry>
        </mxCell>
        <mxCell id="OB8H3D4eKz52UWN7a_ga-17" value="" style="endArrow=classic;html=1;" edge="1" parent="1">
          <mxGeometry width="50" height="50" relative="1" as="geometry">
            <mxPoint x="500" y="358" as="sourcePoint" />
            <mxPoint x="500" y="439" as="targetPoint" />
          </mxGeometry>
        </mxCell>
        <mxCell id="OB8H3D4eKz52UWN7a_ga-18" value="" style="endArrow=classic;html=1;" edge="1" parent="1">
          <mxGeometry width="50" height="50" relative="1" as="geometry">
            <mxPoint x="666" y="358" as="sourcePoint" />
            <mxPoint x="666" y="437" as="targetPoint" />
          </mxGeometry>
        </mxCell>
        <mxCell id="OB8H3D4eKz52UWN7a_ga-19" value="打榜" style="rounded=1;whiteSpace=wrap;html=1;" vertex="1" parent="1">
          <mxGeometry x="110" y="100" width="120" height="60" as="geometry" />
        </mxCell>
        <mxCell id="OB8H3D4eKz52UWN7a_ga-20" value="榜单写" style="rounded=1;whiteSpace=wrap;html=1;" vertex="1" parent="1">
          <mxGeometry x="440" y="299" width="120" height="60" as="geometry" />
        </mxCell>
        <mxCell id="OB8H3D4eKz52UWN7a_ga-21" value="打榜" style="rounded=1;whiteSpace=wrap;html=1;gradientColor=#b3b3b3;fillColor=#f5f5f5;strokeColor=#666666;" vertex="1" parent="1">
          <mxGeometry x="110" y="100" width="120" height="60" as="geometry" />
        </mxCell>
        <mxCell id="OB8H3D4eKz52UWN7a_ga-22" value="榜单写" style="rounded=1;whiteSpace=wrap;html=1;gradientColor=#b3b3b3;fillColor=#f5f5f5;strokeColor=#666666;" vertex="1" parent="1">
          <mxGeometry x="440" y="299" width="120" height="60" as="geometry" />
        </mxCell>
        <mxCell id="OB8H3D4eKz52UWN7a_ga-23" value="" style="endArrow=classic;html=1;entryX=0;entryY=0.5;entryDx=0;entryDy=0;entryPerimeter=0;exitX=0.7;exitY=1.05;exitDx=0;exitDy=0;exitPerimeter=0;edgeStyle=orthogonalEdgeStyle;dashed=1;" edge="1" parent="1" source="OB8H3D4eKz52UWN7a_ga-21" target="OB8H3D4eKz52UWN7a_ga-8">
          <mxGeometry width="50" height="50" relative="1" as="geometry">
            <mxPoint x="210" y="230" as="sourcePoint" />
            <mxPoint x="260" y="180" as="targetPoint" />
            <Array as="points">
              <mxPoint x="194" y="270" />
            </Array>
          </mxGeometry>
        </mxCell>
        <mxCell id="OB8H3D4eKz52UWN7a_ga-24" value="" style="endArrow=classic;html=1;entryX=1;entryY=0.35;entryDx=0;entryDy=0;entryPerimeter=0;exitX=0.342;exitY=0.017;exitDx=0;exitDy=0;edgeStyle=orthogonalEdgeStyle;exitPerimeter=0;dashed=1;" edge="1" parent="1" source="OB8H3D4eKz52UWN7a_ga-5" target="OB8H3D4eKz52UWN7a_ga-8">
          <mxGeometry width="50" height="50" relative="1" as="geometry">
            <mxPoint x="400" y="310" as="sourcePoint" />
            <mxPoint x="450" y="260" as="targetPoint" />
          </mxGeometry>
        </mxCell>
        <mxCell id="OB8H3D4eKz52UWN7a_ga-25" value="" style="endArrow=classic;html=1;entryX=1;entryY=0.5;entryDx=0;entryDy=0;entryPerimeter=0;exitX=0.25;exitY=0;exitDx=0;exitDy=0;edgeStyle=orthogonalEdgeStyle;dashed=1;" edge="1" parent="1" source="OB8H3D4eKz52UWN7a_ga-22" target="OB8H3D4eKz52UWN7a_ga-8">
          <mxGeometry width="50" height="50" relative="1" as="geometry">
            <mxPoint x="300" y="420" as="sourcePoint" />
            <mxPoint x="350" y="370" as="targetPoint" />
          </mxGeometry>
        </mxCell>
        <mxCell id="OB8H3D4eKz52UWN7a_ga-26" value="打榜" style="rounded=1;whiteSpace=wrap;html=1;gradientColor=#b3b3b3;fillColor=#f5f5f5;strokeColor=#666666;" vertex="1" parent="1">
          <mxGeometry x="110" y="100" width="120" height="60" as="geometry" />
        </mxCell>
        <mxCell id="OB8H3D4eKz52UWN7a_ga-27" value="打榜" style="rounded=1;whiteSpace=wrap;html=1;strokeColor=#666666;fillColor=#CC99FF;fontSize=14;" vertex="1" parent="1">
          <mxGeometry x="110" y="100" width="120" height="60" as="geometry" />
        </mxCell>
        <mxCell id="OB8H3D4eKz52UWN7a_ga-28" value="榜单写" style="rounded=1;whiteSpace=wrap;html=1;strokeColor=#666666;fillColor=#CC99FF;fontSize=14;" vertex="1" parent="1">
          <mxGeometry x="440" y="299" width="120" height="60" as="geometry" />
        </mxCell>
        <mxCell id="OB8H3D4eKz52UWN7a_ga-29" value="" style="verticalLabelPosition=bottom;verticalAlign=top;html=1;shape=mxgraph.basic.8_point_star;strokeWidth=1;gradientColor=none;rotation=15;fillColor=#FF3333;" vertex="1" parent="1">
          <mxGeometry x="430" y="102" width="40" height="40" as="geometry" />
        </mxCell>
        <mxCell id="OB8H3D4eKz52UWN7a_ga-31" value="投票消息中转超时或失败导致用户数据和榜单不一致" style="text;html=1;strokeColor=none;fillColor=none;align=left;verticalAlign=middle;whiteSpace=wrap;rounded=0;fontSize=16;fontStyle=0;fontColor=#FF0000;fontFamily=Helvetica;" vertex="1" parent="1">
          <mxGeometry x="350" y="40" width="200" height="20" as="geometry" />
        </mxCell>
      </root>
    </mxGraphModel>
  </diagram>
</mxfile>
